<svg width="180" height="60" viewBox="0 0 180 60" fill="none" xmlns="http://www.w3.org/2000/svg">
  <path d="M21.956 3.42213L18.5146 2.5L15.6145 13.3234L12.9962 3.55196L9.55476 4.47409L12.3836 15.0314L5.33757 7.98536L2.81828 10.5047L10.5469 18.2334L0.922126 15.6544L0 19.0958L10.5163 21.9136C10.3959 21.3943 10.3322 20.8532 10.3322 20.2972C10.3322 16.3618 13.5225 13.1716 17.4579 13.1716C21.3933 13.1716 24.5835 16.3618 24.5835 20.2972C24.5835 20.8496 24.5206 21.3874 24.4017 21.9036L33.9591 24.4645L34.8811 21.0231L24.323 18.1941L33.9485 15.6149L33.0263 12.1735L22.4686 15.0024L29.5147 7.95643L26.9954 5.43714L19.3739 13.0586L21.956 3.42213Z" fill="black"/>
  <path d="M24.3923 21.9437C24.0972 23.1911 23.4743 24.3117 22.6196 25.2096L29.5435 32.1335L32.0628 29.6142L24.3923 21.9437Z" fill="black"/>
  <path d="M22.5496 25.282C21.6846 26.1655 20.5915 26.8248 19.3656 27.1646L21.8851 36.5673L25.3265 35.6452L22.5496 25.282Z" fill="black"/>
  <path d="M19.2371 27.1989C18.6683 27.3452 18.0722 27.4229 17.4579 27.4229C16.7997 27.4229 16.1623 27.3336 15.5573 27.1666L13.0355 36.5779L16.4769 37.5L19.2371 27.1989Z" fill="black"/>
  <path d="M15.4357 27.1319C14.2286 26.7752 13.1549 26.1075 12.3075 25.2215L5.36658 32.1624L7.88587 34.6817L15.4357 27.1319Z" fill="black"/>
  <path d="M12.2495 25.1601C11.4167 24.2685 10.8101 23.1628 10.5213 21.9347L0.932739 24.504L1.85486 27.9453L12.2495 25.1601Z" fill="black"/>
  <text x="40" y="30" font-family="Arial" font-size="30" fill="black">PORSENI</text>
</svg>